<svg xmlns="http://www.w3.org/2000/svg" width="80" height="61" viewBox="0 0 80 61"><g><g><path fill="#d8362a" d="M79.172 13.223S78.345 7.293 76 4.672c-3.035-3.449-6.483-3.449-8-3.587C56.828.258 40 .12 40 .12s-16.828.138-28 .965c-1.517.138-4.965.276-8 3.587C1.517 7.292.828 13.223.828 13.223S0 20.258 0 27.293v6.482c0 7.035.828 13.931.828 13.931S1.655 53.637 4 56.258c3.035 3.448 7.035 3.31 8.828 3.724 6.344.69 27.172.828 27.172.828s16.828 0 28-.966c1.517-.138 4.965-.276 8-3.586 2.345-2.62 3.172-8.552 3.172-8.552S80 40.672 80 33.776v-6.484c0-7.034-.828-14.069-.828-14.069"/></g></g></svg>